<?xml version="1.0" encoding="utf-8"?>
<!-- Generator: Adobe Illustrator 23.0.0, SVG Export Plug-In . SVG Version: 6.00 Build 0)  -->
<svg version="1.1" id="Calque_1" xmlns="http://www.w3.org/2000/svg" xmlns:xlink="http://www.w3.org/1999/xlink" x="0px" y="0px"
	 viewBox="0 0 233.01 121.89" style="enable-background:new 0 0 233.01 121.89;" xml:space="preserve">
<style type="text/css">
	.st0{fill:#77787B;}
	.st1{fill-rule:evenodd;clip-rule:evenodd;fill:#D2D7DD;}
	.st2{clip-path:url(#SVGID_2_);fill:url(#SVGID_3_);}
	.st3{clip-path:url(#SVGID_5_);fill:url(#SVGID_6_);}
	.st4{clip-path:url(#SVGID_8_);fill:url(#SVGID_9_);}
	.st5{clip-path:url(#SVGID_11_);fill:url(#SVGID_12_);}
	.st6{clip-path:url(#SVGID_14_);fill:url(#SVGID_15_);}
	.st7{clip-path:url(#SVGID_17_);fill-rule:evenodd;clip-rule:evenodd;fill:#8A8C8C;}
	.st8{clip-path:url(#SVGID_17_);fill-rule:evenodd;clip-rule:evenodd;fill:#80878B;}
	.st9{clip-path:url(#SVGID_17_);fill-rule:evenodd;clip-rule:evenodd;fill:#C5C4C5;}
	.st10{clip-path:url(#SVGID_17_);fill-rule:evenodd;clip-rule:evenodd;fill:#231F20;}
	.st11{clip-path:url(#SVGID_17_);fill-rule:evenodd;clip-rule:evenodd;fill:#9A9D9E;}
	.st12{clip-path:url(#SVGID_17_);fill-rule:evenodd;clip-rule:evenodd;fill:#29ABE3;}
	.st13{clip-path:url(#SVGID_17_);fill:#77787B;}
	.st14{clip-path:url(#SVGID_17_);fill:#29ABE3;}
	.st15{clip-path:url(#SVGID_17_);fill:none;stroke:#77787B;stroke-width:0.636;}
	.st16{fill:#78797B;}
	.st17{fill:#2BABE3;}
</style>
<rect x="0.6" y="0.48" class="st0" width="42.95" height="52.18"/>
<rect x="1.32" y="1.19" class="st1" width="41.52" height="50.76"/>
<g>
	<defs>
		<rect id="SVGID_1_" x="20.59" y="34.73" width="4.07" height="16.63"/>
	</defs>
	<clipPath id="SVGID_2_">
		<use xlink:href="#SVGID_1_"  style="overflow:visible;"/>
	</clipPath>
	
		<linearGradient id="SVGID_3_" gradientUnits="userSpaceOnUse" x1="-49.346" y1="315.802" x2="-48.346" y2="315.802" gradientTransform="matrix(17.3107 0 0 17.3107 859.3752 -5423.6992)">
		<stop  offset="0" style="stop-color:#0D55A3"/>
		<stop  offset="0.146" style="stop-color:#0160AB"/>
		<stop  offset="0.4398" style="stop-color:#007DC2"/>
		<stop  offset="0.8507" style="stop-color:#08ABE3"/>
		<stop  offset="1" style="stop-color:#21BCEF"/>
	</linearGradient>
	<rect x="20.59" y="34.73" class="st2" width="4.07" height="16.63"/>
</g>
<g>
	<defs>
		<rect id="SVGID_4_" x="15.92" y="34.73" width="4.07" height="16.63"/>
	</defs>
	<clipPath id="SVGID_5_">
		<use xlink:href="#SVGID_4_"  style="overflow:visible;"/>
	</clipPath>
	
		<linearGradient id="SVGID_6_" gradientUnits="userSpaceOnUse" x1="-49.346" y1="315.802" x2="-48.346" y2="315.802" gradientTransform="matrix(17.3111 0 0 17.3111 859.3977 -5423.8433)">
		<stop  offset="0" style="stop-color:#0D55A3"/>
		<stop  offset="0.146" style="stop-color:#0160AB"/>
		<stop  offset="0.4398" style="stop-color:#007DC2"/>
		<stop  offset="0.8507" style="stop-color:#08ABE3"/>
		<stop  offset="1" style="stop-color:#21BCEF"/>
	</linearGradient>
	<rect x="15.92" y="34.73" class="st3" width="4.07" height="16.63"/>
</g>
<g>
	<defs>
		<rect id="SVGID_7_" x="11.31" y="34.73" width="4.07" height="16.63"/>
	</defs>
	<clipPath id="SVGID_8_">
		<use xlink:href="#SVGID_7_"  style="overflow:visible;"/>
	</clipPath>
	
		<linearGradient id="SVGID_9_" gradientUnits="userSpaceOnUse" x1="-49.346" y1="315.802" x2="-48.346" y2="315.802" gradientTransform="matrix(17.3083 0 0 17.3083 859.2611 -5422.9561)">
		<stop  offset="0" style="stop-color:#0D55A3"/>
		<stop  offset="0.146" style="stop-color:#0160AB"/>
		<stop  offset="0.4398" style="stop-color:#007DC2"/>
		<stop  offset="0.8507" style="stop-color:#08ABE3"/>
		<stop  offset="1" style="stop-color:#21BCEF"/>
	</linearGradient>
	<rect x="11.3" y="34.73" class="st4" width="4.07" height="16.63"/>
</g>
<g>
	<defs>
		<rect id="SVGID_10_" x="6.7" y="34.73" width="4.07" height="16.63"/>
	</defs>
	<clipPath id="SVGID_11_">
		<use xlink:href="#SVGID_10_"  style="overflow:visible;"/>
	</clipPath>
	
		<linearGradient id="SVGID_12_" gradientUnits="userSpaceOnUse" x1="-49.346" y1="315.802" x2="-48.346" y2="315.802" gradientTransform="matrix(17.3144 0 0 17.3144 859.5611 -5424.8892)">
		<stop  offset="0" style="stop-color:#0D55A3"/>
		<stop  offset="0.146" style="stop-color:#0160AB"/>
		<stop  offset="0.4398" style="stop-color:#007DC2"/>
		<stop  offset="0.8507" style="stop-color:#08ABE3"/>
		<stop  offset="1" style="stop-color:#21BCEF"/>
	</linearGradient>
	<rect x="6.7" y="34.73" class="st5" width="4.07" height="16.63"/>
</g>
<g>
	<defs>
		<rect id="SVGID_13_" x="2.17" y="34.73" width="4.07" height="16.63"/>
	</defs>
	<clipPath id="SVGID_14_">
		<use xlink:href="#SVGID_13_"  style="overflow:visible;"/>
	</clipPath>
	
		<linearGradient id="SVGID_15_" gradientUnits="userSpaceOnUse" x1="-49.346" y1="315.802" x2="-48.346" y2="315.802" gradientTransform="matrix(17.3107 0 0 17.3107 859.3758 -5423.6992)">
		<stop  offset="0" style="stop-color:#0D55A3"/>
		<stop  offset="0.146" style="stop-color:#0160AB"/>
		<stop  offset="0.4398" style="stop-color:#007DC2"/>
		<stop  offset="0.8507" style="stop-color:#08ABE3"/>
		<stop  offset="1" style="stop-color:#21BCEF"/>
	</linearGradient>
	<rect x="2.17" y="34.73" class="st6" width="4.07" height="16.63"/>
</g>
<g>
	<defs>
		<rect id="SVGID_16_" width="233.01" height="55.84"/>
	</defs>
	<clipPath id="SVGID_17_">
		<use xlink:href="#SVGID_16_"  style="overflow:visible;"/>
	</clipPath>
	<path class="st7" d="M42.51,35.67l-4.22,2.43c-0.85-1.35-2.67-2.63-4.38-1.65c-0.2,0.11-0.38,0.33-0.47,0.5
		c0,0.07,0.09,0.18,0.23,0.33c0.08-0.08,0.16-0.15,0.25-0.2c1.7-0.98,3.53,0.3,4.38,1.65l4.63-2.66
		C42.78,35.93,42.64,35.8,42.51,35.67"/>
	<path class="st7" d="M41.27,45.38c-0.01,0.13-0.03,0.27-0.06,0.4c-0.78,3.92-5.2,5.12-8.56,5.23c-3.33,0.11-5.67-1.11-7.36-3.91
		L25,47.22c1.7,3.17,4.12,4.54,7.65,4.43c3.35-0.11,7.78-1.31,8.56-5.23C41.28,46.06,41.3,45.71,41.27,45.38"/>
	<path class="st7" d="M35.78,45.92c0.13-0.28,0.07-0.63-0.16-0.86c-0.01-0.01-0.02-0.01-0.02-0.02l-1.23-1.04
		c-1.98-1.51-3.74-2.2-5.51-4.32c-0.44-0.53-0.76-1.27-0.83-2c-0.1,0.92,0.26,1.95,0.83,2.63c1.76,2.12,3.53,2.8,5.51,4.32
		l1.23,1.04c0.01,0.01,0.02,0.01,0.02,0.02C35.68,45.75,35.74,45.83,35.78,45.92"/>
	<path class="st8" d="M26.27,14.29c0.03,0,0.04,0,0.05-0.01c0.03-0.01,0.08-0.02,0.09-0.03c0.01-0.01,0.02-0.01,0.01-0.02
		c-0.01,0-0.01,0-0.02,0c-0.01,0-0.01,0-0.01-0.01l0-0.01c0-0.01-0.01-0.01-0.02-0.01c-0.02,0-0.06,0-0.06,0
		c-0.02,0-0.03-0.01-0.04-0.01c-0.02,0-0.05,0.01-0.08,0c-0.02,0-0.04-0.01-0.04-0.01l-0.06,0.02l0.01,0c0,0-0.01,0-0.01,0
		c-0.04,0.01-0.1,0.01-0.14,0.02c-0.02,0-0.04,0.01-0.06,0.01c-0.05,0.01-0.21,0.02-0.33,0.03c-0.18,0.02-0.45,0.06-0.49,0.06
		c-0.03,0-0.05,0-0.08,0c-0.03,0-0.06,0.01-0.09,0.02c-0.05,0.01-0.11,0-0.17,0.01c-0.04,0.01-0.08,0.02-0.13,0.03
		c-0.01,0-0.03,0-0.05,0c-0.05,0-0.15,0.01-0.17,0.02c-0.02,0.01-0.04,0.02-0.06,0.02h-0.01c-0.01,0-0.03,0-0.05,0
		c-0.02,0-0.03,0-0.04,0c-0.04,0-0.1,0.02-0.14,0.02c-0.03,0-0.05,0-0.07,0c-0.02,0-0.51,0.04-0.54,0.04
		c-0.09,0.02-0.2,0.04-0.24,0.04c-0.03,0-0.06,0-0.09,0.01c-0.03,0.01-0.07,0.01-0.1,0.02c-0.04,0.01-0.09,0-0.13,0.01
		c-0.05,0-0.09,0.02-0.14,0.02c-0.06,0.01-0.1,0-0.15,0.01c-0.04,0-0.24,0.02-0.34,0.04c-0.04,0.01-0.7,0.05-0.73,0.04
		c-0.05,0-0.1-0.01-0.1-0.01s0.06-0.03,0.08-0.04c0.01-0.01,0.02-0.01,0.02-0.02c0.02-0.02,0.27-0.08,0.34-0.11
		c0.02-0.01,0.03-0.03,0.02-0.03c-0.01,0-0.02-0.01-0.01-0.01c0.01-0.01,0.02-0.01,0.01-0.01c-0.01,0-0.05,0-0.1,0.01
		c-0.09,0.01-0.21,0.04-0.21,0.04l0.16-0.05l-0.01,0c0,0-0.28,0.07-0.43,0.11c-0.05,0.01-0.09,0.02-0.12,0.02
		c-0.05,0.01-0.34,0.1-0.42,0.12c-0.07,0.03-0.2,0.08-0.23,0.1c-0.01,0.01-0.03,0.05-0.02,0.06c0.01,0.01,0.13,0.04,0.16,0.04
		c0.03,0,0.06,0.01,0.08,0.01c0.02,0,0.03,0.01,0.05,0.01c0.02,0,0.08,0,0.13-0.01c0.8-0.1,2.82-0.35,2.87-0.35
		c0.04,0,0.08,0,0.11-0.01c0.05-0.01,0.1-0.02,0.15-0.03c0.06-0.01,0.11,0,0.16-0.01c0.04-0.01,0.07-0.02,0.11-0.02
		c0.06-0.01,1.14-0.12,1.2-0.14c0.04-0.01,0.07-0.02,0.11-0.02C25.73,14.34,26.07,14.31,26.27,14.29"/>
	<path class="st8" d="M28.86,13.12c-0.02,0.02-0.02,0.03-0.02,0.04c-0.01,0.02-0.03,0.08-0.03,0.08c0,0.02,0,0.04,0.01,0.03
		c0,0,0.01-0.01,0.01-0.01c0-0.01,0.01-0.01,0.01,0l0.01,0.01c0.01,0.01,0.01,0.01,0.02,0c0.01-0.01,0.03-0.02,0.04-0.03
		c0.01,0,0.03,0,0.04-0.01c0.01-0.01,0.02-0.03,0.04-0.04c0.01,0,0.04,0,0.04,0l0.01-0.05l-0.01,0l0-0.01
		c0.01-0.04,0.04-0.07,0.06-0.1c0.01-0.02,0.01-0.03,0.02-0.05c0.02-0.04,0.1-0.13,0.15-0.21c0.08-0.12,0.19-0.32,0.21-0.33
		c0.02-0.01,0.03-0.02,0.05-0.03s0.02-0.05,0.03-0.07c0.02-0.04,0.06-0.06,0.09-0.1c0.02-0.03,0.02-0.08,0.04-0.11
		c0.01-0.01,0.01-0.02,0.02-0.03c0.03-0.03,0.07-0.1,0.08-0.11c0.01-0.02,0.01-0.04,0.01-0.05c0,0,0,0,0.01-0.01
		c0.01-0.01,0.01-0.02,0.02-0.03c0.01-0.01,0.02-0.01,0.03-0.02c0.02-0.01,0.04-0.08,0.06-0.1c0.01-0.02,0.03-0.02,0.04-0.03
		c0.01-0.01,0.26-0.3,0.27-0.33c0.03-0.07,0.07-0.17,0.09-0.19c0.01-0.02,0.03-0.03,0.04-0.05c0.01-0.02,0.02-0.05,0.04-0.08
		c0.02-0.03,0.05-0.05,0.07-0.08c0.02-0.03,0.04-0.07,0.06-0.11c0.03-0.04,0.05-0.05,0.08-0.08c0.02-0.02,0.11-0.15,0.16-0.23
		c0.02-0.03,0.35-0.41,0.37-0.43c0.03-0.02,0.06-0.04,0.06-0.04s-0.01,0.07,0,0.11c0,0.02,0,0.03,0,0.04
		c0.01,0.04-0.06,0.27-0.07,0.35c0,0.02,0.01,0.06,0.02,0.06c0.01,0,0.01,0,0.02,0.01c0,0.01,0,0.02,0,0.02
		c0.01,0,0.02-0.03,0.04-0.07c0.03-0.07,0.08-0.16,0.08-0.16l-0.04,0.16h0.01c0,0,0.08-0.26,0.13-0.39c0.02-0.04,0.03-0.07,0.04-0.1
		c0.02-0.04,0.09-0.33,0.11-0.41c0.01-0.08,0.03-0.23,0.03-0.27c0-0.02-0.04-0.1-0.05-0.11C31.5,9.39,31.4,9.39,31.38,9.4
		c-0.02,0.01-0.04,0.02-0.06,0.02c-0.01,0-0.03,0-0.04,0.01c-0.01,0.01-0.04,0.04-0.06,0.08c-0.35,0.55-1.25,1.93-1.27,1.96
		c-0.02,0.02-0.04,0.04-0.06,0.07c-0.02,0.04-0.03,0.08-0.06,0.12c-0.02,0.04-0.06,0.06-0.08,0.09c-0.02,0.02-0.03,0.06-0.04,0.09
		c-0.02,0.05-0.52,0.76-0.54,0.81c-0.01,0.03-0.02,0.06-0.04,0.1C29.11,12.78,28.95,13,28.86,13.12"/>
	<path class="st8" d="M27.56,14.75c0.02-0.03,0.02-0.03,0.02-0.04c0.01-0.03,0.02-0.09,0.02-0.1c0-0.02-0.01-0.04-0.02-0.04
		c0,0-0.01,0.01-0.01,0.01c0,0.01-0.01,0.01-0.02,0l-0.01-0.01c-0.01-0.01-0.01-0.01-0.02,0c-0.01,0.02-0.03,0.03-0.04,0.03
		c-0.01,0.01-0.03,0-0.04,0.01c-0.02,0.01-0.02,0.04-0.05,0.05c-0.02,0.01-0.04,0-0.04,0l-0.01,0.07h0.01c0,0,0,0.01,0,0.01
		c-0.01,0.05-0.04,0.08-0.06,0.12c-0.01,0.02-0.01,0.04-0.02,0.06c-0.01,0.05-0.1,0.16-0.16,0.26c-0.09,0.15-0.19,0.39-0.22,0.41
		c-0.02,0.01-0.04,0.02-0.05,0.04c-0.01,0.02-0.02,0.06-0.03,0.09c-0.02,0.05-0.07,0.07-0.09,0.12c-0.02,0.04-0.02,0.1-0.04,0.13
		c-0.01,0.01-0.02,0.02-0.03,0.03c-0.03,0.03-0.08,0.12-0.08,0.14c0,0.03,0,0.05-0.01,0.06c0,0-0.01,0-0.01,0.01
		c-0.01,0.01-0.01,0.03-0.02,0.04c-0.01,0.01-0.02,0.01-0.03,0.02c-0.02,0.02-0.03,0.09-0.06,0.13c-0.01,0.02-0.03,0.02-0.05,0.03
		c-0.01,0.01-0.27,0.38-0.28,0.41c-0.03,0.09-0.07,0.2-0.09,0.23c-0.01,0.02-0.03,0.04-0.04,0.07c-0.02,0.03-0.02,0.07-0.04,0.09
		c-0.02,0.04-0.05,0.06-0.07,0.1c-0.02,0.04-0.04,0.09-0.06,0.13c-0.03,0.05-0.05,0.07-0.08,0.1c-0.02,0.02-0.11,0.19-0.16,0.28
		c-0.02,0.04-0.37,0.52-0.39,0.53c-0.03,0.02-0.07,0.05-0.07,0.05s0-0.08,0-0.12c0-0.02-0.01-0.03-0.01-0.05
		c-0.01-0.04,0.05-0.32,0.05-0.42c0-0.03-0.02-0.07-0.03-0.07c-0.01,0-0.02,0-0.02-0.01c0-0.01,0-0.03-0.01-0.02
		c-0.01,0-0.03,0.04-0.04,0.08c-0.03,0.08-0.07,0.2-0.07,0.2l0.03-0.18l-0.01,0c0,0-0.07,0.31-0.12,0.46
		c-0.02,0.05-0.03,0.09-0.04,0.12c-0.02,0.05-0.07,0.39-0.08,0.48c-0.01,0.09-0.01,0.27,0,0.32c0.01,0.03,0.06,0.11,0.07,0.12
		c0.02,0.01,0.14-0.01,0.16-0.02c0.02-0.01,0.04-0.03,0.06-0.03c0.01-0.01,0.03-0.01,0.04-0.01c0.02-0.01,0.04-0.05,0.07-0.1
		c0.36-0.68,1.26-2.36,1.29-2.4c0.02-0.03,0.04-0.05,0.06-0.09c0.02-0.04,0.03-0.1,0.06-0.14c0.02-0.05,0.07-0.08,0.09-0.12
		c0.02-0.03,0.03-0.07,0.04-0.11c0.02-0.06,0.53-0.93,0.55-0.99c0.01-0.04,0.02-0.07,0.03-0.11C27.3,15.17,27.46,14.9,27.56,14.75"
		/>
	<path class="st8" d="M30.12,13.67c-0.06,0-0.07,0-0.09,0.01c-0.06,0.01-0.15,0.03-0.16,0.04c-0.02,0.01-0.04,0.03-0.02,0.03
		c0.01,0,0.02,0,0.03,0c0.02,0,0.02,0,0.02,0.01l0,0.01c0,0.01,0.01,0.01,0.03,0.01c0.04,0,0.09,0.01,0.11,0.01
		c0.03,0.01,0.05,0.02,0.08,0.02c0.04,0.01,0.09-0.01,0.13,0.01c0.03,0.01,0.07,0.03,0.07,0.03l0.1-0.03l-0.02-0.01
		c0,0,0.01,0,0.02-0.01c0.07-0.02,0.17-0.01,0.24-0.02c0.04,0,0.07-0.01,0.11-0.02c0.09-0.02,0.36-0.02,0.57-0.03
		c0.32-0.02,0.78-0.07,0.85-0.06c0.05,0,0.09,0.01,0.13,0.01c0.05,0,0.1-0.02,0.16-0.02c0.09-0.01,0.19,0.01,0.29,0
		c0.08-0.01,0.15-0.04,0.23-0.04c0.03,0,0.05,0,0.08,0c0.08,0,0.26-0.01,0.3-0.01c0.04-0.01,0.07-0.02,0.1-0.02
		c0.01,0,0.01,0,0.02,0c0.02,0,0.05,0,0.08,0c0.03,0,0.05,0.01,0.07,0.01c0.06,0.01,0.17-0.02,0.24-0.03c0.04,0,0.08,0.01,0.12,0.02
		c0.03,0.01,0.88-0.01,0.94-0.02c0.16-0.02,0.36-0.05,0.42-0.05c0.05,0,0.1,0,0.15,0c0.06,0,0.12-0.02,0.18-0.02
		c0.07-0.01,0.15,0.01,0.23,0c0.08,0,0.16-0.02,0.25-0.03c0.1-0.01,0.16,0,0.25,0.01c0.07,0,0.41-0.02,0.6-0.03
		c0.07-0.01,1.2-0.01,1.26,0c0.08,0.01,0.17,0.02,0.17,0.02s-0.11,0.04-0.15,0.07c-0.03,0.01-0.03,0.02-0.04,0.03
		c-0.04,0.03-0.48,0.13-0.6,0.18c-0.03,0.01-0.06,0.05-0.04,0.05c0.01,0.01,0.03,0.01,0.02,0.02c-0.01,0.01-0.04,0.01-0.02,0.02
		c0.02,0.01,0.09,0,0.17-0.01c0.16-0.02,0.36-0.05,0.36-0.05l-0.28,0.07l0.01,0.01c0,0,0.5-0.11,0.76-0.15
		c0.09-0.01,0.15-0.02,0.22-0.03c0.09-0.02,0.6-0.15,0.74-0.19c0.13-0.04,0.36-0.13,0.41-0.16c0.03-0.02,0.06-0.1,0.04-0.11
		c-0.02-0.02-0.21-0.09-0.27-0.1c-0.05-0.01-0.1-0.02-0.14-0.03c-0.03-0.01-0.05-0.02-0.08-0.02c-0.04-0.01-0.14,0-0.22,0
		c-1.39,0.1-4.89,0.33-4.98,0.33c-0.07,0-0.13,0-0.2,0c-0.09,0.01-0.17,0.03-0.26,0.04c-0.1,0-0.2-0.01-0.28,0
		c-0.07,0-0.12,0.02-0.19,0.03c-0.1,0.02-1.97,0.1-2.08,0.12c-0.07,0.01-0.12,0.03-0.19,0.04C31.05,13.64,30.46,13.66,30.12,13.67"
		/>
	<path class="st8" d="M42.3,14.25v-0.08c-0.02,0-0.05,0-0.07,0c-0.02-0.01-0.03-0.1-0.03-0.16c0-0.02-0.14-0.16-0.17-0.17
		c-0.07-0.02-0.17-0.03-0.17-0.03l-0.01,0.03l-0.16,0.02c0,0-0.01,0.1-0.01,0.17c-0.01,0.18-0.04,0.17-0.34,0.34
		c-0.16,0.1-0.19,0.1-0.46,0.15c-0.05,0.01-0.06,0.01-0.06,0.02l0,0.01l-0.15,0.01l0.03-0.07c0,0-0.09,0.01-0.11,0.01
		c-0.01,0,0.01-0.04-0.05-0.02c-0.02,0-0.03,0.02-0.06,0.02c-0.01,0-0.02,0-0.02,0l0.01-0.05l0.11,0l0.04-0.11
		c0,0-1.35,0.36-1.85,0.47c-0.08,0.02-1.28,0.25-1.38,0.24c-0.07-0.01-0.15-0.03-0.19-0.02c-0.07,0.01-0.17,0.07-0.21,0.05
		c-0.01-0.01-0.01-0.01-0.01-0.02c-0.01-0.01-0.51,0.04-0.61,0.06c-0.09,0.02-0.16,0.04-0.23,0.05c-0.06,0-0.12,0-0.19-0.01
		c-0.12-0.01-0.52,0.03-0.78,0.05c-0.13,0.01-0.75-0.01-0.88-0.02c-0.48-0.06-1.31-0.2-1.46-0.2c-0.05,0-0.09,0-0.13,0
		c-0.1-0.01-0.21-0.07-0.34-0.08c-0.06,0-0.12,0-0.17-0.01c-0.03-0.01-0.04-0.02-0.06-0.01c-0.02,0.01-0.03,0.02-0.04,0.03
		c-0.02,0.02-1.67-0.52-2.69-0.8c-0.33-0.09-0.67-0.16-0.67-0.16s0.12-0.05,0.16-0.09c0.02-0.02,0.03-0.03,0.05-0.05
		c0.04-0.03,0.08-0.04,0.08-0.06c0-0.01-0.01-0.01-0.01-0.03c-0.01-0.02,0.07-0.18,0.1-0.19c0.02-0.01,0.07-0.02,0.03-0.04
		c-0.14-0.07-0.63-0.04-0.68-0.04c-0.14,0.02-0.52,0.13-0.78,0.2c-0.05,0.01-0.06,0.01-0.1,0c-0.15-0.05-0.29-0.09-0.45-0.13
		c-0.21-0.06-2.96-0.64-3.01-0.64c-0.14,0.01-0.25-0.03-0.47-0.09c-0.09-0.03-0.53-0.08-0.68-0.09c-0.29-0.01-0.69-0.01-0.69-0.01
		l0-0.02l-0.05,0c-0.02,0-0.03,0-0.08,0.01c-0.34,0.07-0.68,0.13-1.01,0.21c-0.17,0.04-1.06,0.33-1.22,0.39
		c-0.39,0.16-1,0.42-1.14,0.46c-0.05,0.01-0.1,0.03-0.15,0.04c-0.08,0.03-0.71,0.37-1.07,0.56c-0.04,0.02-0.05,0.02-0.07,0.02h-0.04
		c0,0-0.01,0.04-0.01,0.06c-0.01,0.07,0,0.09,0.01,0.11c0.03,0.06,0.24,0.26,0.29,0.29c0.03,0.01,0.4,0.04,0.46,0.03
		c0.09-0.02,0.2-0.04,0.3-0.06c0.05-0.01,0.06-0.01,0.06-0.03c0-0.01,0-0.03,0.01-0.04c0.02-0.01,0.06,0.01,0.09,0
		c0.01,0,0.01-0.01,0.02-0.02c0.04-0.03,0.16-0.04,0.25-0.07c0.08-0.03,0.14-0.08,0.2-0.08c0.02,0,0.04,0,0.07,0
		c0.1,0,0.54-0.14,0.54-0.14l-0.14,0l0-0.01l0.03,0l0.03-0.07h-0.01l0.01-0.03l0.08,0l0.01-0.07l-0.1-0.01l0.01-0.03l-0.14,0.01
		l0.01-0.04l-0.11,0l0.01-0.06c0.01-0.03,0.01-0.04,0.05-0.06c0.62-0.35,0.65-0.39,1.43-0.61c0.19-0.05,0.38-0.1,0.56-0.15
		c0.12-0.03,0.6-0.11,0.68-0.11c0.06,0,0.12,0,0.12-0.01c0,0,0-0.01,0-0.01c0.01-0.01,0.08-0.01,0.12-0.02
		c0.06-0.01,0.09-0.03,0.13-0.04c0.04-0.01,0.61,0.02,0.7,0.04c0.15,0.03,0.27,0.06,0.4,0.09c0.16,0.03,0.34,0.05,0.54,0.07
		c0.16,0.02,1.51,0.31,1.58,0.34c0.04,0.02,0.08,0.04,0.14,0.06c0.2,0.07,1.17,0.29,1.17,0.29s-0.02,0.08-0.03,0.13
		c-0.01,0.18,0.29,0.26,0.5,0.23c0.13-0.02,0.3-0.07,0.45-0.1c0.05-0.01,0.06-0.01,0.11,0c0.55,0.13,1.59,0.37,1.66,0.4
		c0.06,0.03,0.11,0.05,0.17,0.08c0.15,0.07,1.14,0.34,1.74,0.51c0.32,0.1,0.32,0.11,0.48,0.21c0.04,0.02,1.92,0.48,2.06,0.5
		c1.07,0.15,1.47,0.18,2.74,0.02c0.8-0.1,0.94-0.15,2.14-0.42c0.38-0.08,0.93-0.22,1.1-0.27c0.32-0.11,0.65-0.25,0.94-0.33
		c0.12-0.03,0.24-0.05,0.35-0.09c0.17-0.05,0.69-0.34,0.78-0.51c0.01-0.02,0.02-0.04,0.02-0.06c0-0.03,0-0.03,0.02-0.03L42.3,14.25z
		"/>
	<path class="st8" d="M20.97,21.09l0.58-0.14l-0.01-0.08c0-0.03,0-0.04,0.04-0.06c0.03-0.01,0.06-0.02,0.09-0.03
		c0.16-0.04,0.33-0.05,0.5-0.09c0.19-0.05,1.27-0.51,1.43-0.64c0.05-0.04,0.09-0.08,0.14-0.11c0.04-0.03,0.1-0.05,0.15-0.09
		c0.06-0.04,0.12-0.1,0.17-0.14c0.02-0.02,0.04-0.04,0.03-0.04c-0.01-0.01-0.08,0.02-0.1,0.01c-0.02-0.01,0.01-0.05-0.05-0.03
		c-0.04,0.02-0.06,0.05-0.13,0.07c-0.05,0.02-0.13,0.02-0.13,0.02l0.04-0.17c0,0-0.09,0.08-0.16,0.11
		c-0.08,0.04-0.12-0.01-0.17,0.01c-0.06,0.02-0.14,0.11-0.24,0.15c-0.04,0.02-0.1,0.03-0.15,0.04c-0.18,0.04-0.5,0.16-0.64,0.17
		c-0.07,0-0.15-0.01-0.15-0.01l0,0.03c0,0.01-0.01,0.02-0.08,0.04c-0.78,0.21-2.56,0.71-3.36,0.74c-0.09,0-0.18,0-0.27-0.02
		c-0.02,0-0.04-0.01-0.05-0.01c-0.01-0.01-0.01-0.01-0.02-0.02c-0.03-0.02-0.27-0.04-0.41-0.05c-0.42-0.04-0.15-0.28,0.14-0.55
		c0.16-0.15,0.43-0.36,0.5-0.39c0.02-0.01,0.04-0.02,0.07-0.03c0.07-0.03,0.34-0.24,0.43-0.34c0.04-0.04,0.07-0.08,0.11-0.1
		c0.03-0.02,0.06-0.03,0.09-0.04c0.06-0.02,0.77-0.43,0.86-0.56c0.02-0.03,0.03-0.07,0.06-0.08c0.04-0.02,0.11-0.01,0.14-0.03
		c0.03-0.02,0.02-0.07,0.06-0.12c0.02-0.04,0.07-0.07,0.12-0.09c0.05-0.02,0.11-0.04,0.12-0.07c0.01-0.03,0.01-0.07,0.01-0.07
		s0.18,0.01,0.26-0.02c0.04-0.02,0.05-0.05,0.09-0.08c0.02-0.02,0.06-0.04,0.09-0.05c0.02-0.01,0.05-0.02,0.07-0.03
		c0.05-0.03,0.09-0.08,0.15-0.12c0.07-0.05,0.16-0.07,0.19-0.12c0.02-0.03,0.01-0.07,0.03-0.1c0.02-0.02,0.07-0.02,0.12-0.03
		c0.05-0.01,0.99-0.54,1.02-0.58c0.02-0.02,0.04-0.05,0.07-0.07c0.05-0.03,0.13-0.04,0.18-0.07c0.04-0.02,0.07-0.05,0.09-0.08
		c0.01-0.01,0.01-0.02,0.01-0.02c0-0.01-0.03,0-0.07,0.01c-0.11,0.03-0.24,0.07-0.24,0.07s0.37-0.26,0.56-0.35
		c0.06-0.03,0.1-0.04,0.16-0.06c0.07-0.03,0.17-0.09,0.26-0.16c0.12-0.09,0.4-0.24,0.45-0.25c0.05-0.01,0.09-0.01,0.09-0.01
		s-0.01,0.06-0.01,0.08c0.01,0.02,0.03,0.01,0.06,0c0.1-0.05,0.06-0.09,0.06-0.15c0-0.03,0.12-0.13,0.19-0.16
		c0.12-0.06,0.26-0.09,0.35-0.16c0.05-0.03,0.08-0.07,0.11-0.06c0.08,0.03-0.25,0.23-0.33,0.26c-0.07,0.04-0.25,0.11-0.24,0.13
		c0.03,0.03,0.27-0.08,0.3-0.1c0.04-0.03,0.06-0.06,0.1-0.09c0.05-0.03,0.12-0.04,0.16-0.07c0.03-0.02,0.04-0.04,0.06-0.06
		c0.05-0.04,0.16-0.08,0.26-0.12c0.16-0.06,0.43-0.23,0.65-0.35c0.06-0.03,0.07-0.04,0.07-0.05l0-0.04l-0.04,0.01
		c-0.02,0-0.03,0.01-0.09,0.04c-0.26,0.14-0.4,0.23-0.61,0.29c-0.04,0.01-0.05,0.01-0.04-0.02c0-0.01,0.01-0.02,0.07-0.05
		c0.77-0.38,0.81-0.37,1.31-0.74c0.05-0.04,0.06-0.05,0.06-0.1l0.03-0.25c0,0-1.21,0.65-2,1.05c-0.27,0.14-0.58,0.32-0.66,0.39
		c-0.01,0.01-0.03,0.03-0.04,0.04c-0.01,0.02-0.01,0.04-0.03,0.05c-0.02,0.03-0.1,0.05-0.17,0.07c-0.1,0.03-0.26,0.11-0.32,0.17
		c-0.05,0.04-0.08,0.08-0.14,0.1c-0.09,0.04-0.24,0.05-0.27,0.1c-0.01,0.02-0.01,0.04-0.03,0.05c-0.02,0.02-0.07,0.01-0.12,0.01
		c-0.06,0.01-0.19,0.07-0.26,0.11c-0.13,0.1-0.17,0.17-0.38,0.21c-0.07,0.02-0.16,0.03-0.18,0.06c-0.01,0.01-0.01,0.03-0.01,0.04
		c-0.01,0.03-0.11,0.11-0.19,0.14c-0.08,0.04-0.15,0.05-0.22,0.08c-0.19,0.08-0.48,0.34-0.62,0.4c-0.03,0.01-0.06,0.02-0.07,0.03
		c-0.01,0.01-0.02,0.02-0.03,0.03c-0.07,0.07-0.33,0.12-0.39,0.18c-0.03,0.03-0.04,0.06-0.07,0.08c-0.01,0.01-0.04,0.01-0.06,0.02
		c-0.02,0.01-0.05,0.03-0.07,0.04c-0.29,0.2-0.86,0.44-1.05,0.59c-0.06,0.05-0.12,0.1-0.19,0.13c-0.04,0.02-0.08,0.03-0.12,0.05
		c-0.11,0.04-0.37,0.19-0.55,0.31c-0.58,0.4-1.14,0.81-1.7,1.21c-0.05,0.04-0.06,0.04-0.12,0.06c-0.04,0.01-0.08,0.03-0.11,0.05
		c-0.06,0.03-0.21,0.19-0.24,0.25c-0.02,0.04-0.03,0.08-0.06,0.11c-0.02,0.02-0.04,0.04-0.05,0.06c-0.26,0.28-0.12,0.7,0.07,0.87
		c0.25,0.22,0.86,0.32,1.31,0.3c0.2-0.01,0.69-0.08,1.06-0.13c0.28-0.04,1.19-0.24,1.28-0.28c0.11-0.05,0.22-0.1,0.31-0.12
		c0.04-0.01,0.09-0.01,0.13-0.02c0.14-0.04,0.11-0.1,0.29-0.12c0.07-0.01,0.08,0,0.14-0.04C20.89,21.11,20.9,21.1,20.97,21.09"/>
	<path class="st8" d="M29.63,12.87c0.3-0.17,0.84-0.47,0.91-0.49c0.08-0.02,0.14-0.03,0.22-0.05c0.12-0.03,1.83-0.95,1.94-0.98
		c0.08-0.02,0.15-0.02,0.21-0.06c0.08-0.04,0.14-0.12,0.23-0.17c0.08-0.04,0.19-0.05,0.27-0.09c0.06-0.03,0.11-0.07,0.17-0.11
		c0.07-0.05,3.38-1.64,4.7-2.26c0.08-0.04,0.17-0.09,0.19-0.12c0.02-0.03,0.02-0.06,0.03-0.09c0.01-0.04,0.05-0.08,0.08-0.13
		c0.03-0.05,0.08-0.3,0.07-0.34c-0.01-0.03-0.16-0.15-0.21-0.17c-0.08-0.02-0.41-0.05-0.59-0.05c-0.18,0-0.81,0.07-0.91,0.09
		c-0.07,0.02-0.14,0.04-0.24,0.07c-0.29,0.07-0.88,0.17-0.88,0.17l0,0.02l0.35-0.03c0,0-0.22,0.06-0.38,0.12
		c-0.09,0.03-0.16,0.06-0.17,0.08c-0.01,0.02,0.02,0.01,0.04,0.02c0.02,0.01,0.01,0.03,0.01,0.04c0,0.02,0.07,0.06,0.12,0.07
		c0.18,0.02,0.71-0.05,0.78-0.03c0.02,0.01,0.04,0.02,0.08,0.03c0.07,0.02,0.23,0.03,0.23,0.03s-0.05,0.07-0.11,0.13
		c-0.03,0.04-0.99,0.69-1.06,0.72c-0.18,0.08-0.5,0.24-0.55,0.28c-0.07,0.06-0.11,0.11-0.2,0.16c-0.08,0.04-0.18,0.05-0.25,0.1
		c-0.07,0.04-0.12,0.1-0.19,0.14c-0.06,0.03-0.13,0.04-0.18,0.06c-0.05,0.02-0.09,0.06-0.13,0.08c-0.06,0.04-0.27,0.09-0.44,0.14
		c-0.06,0.02-0.79,0.48-0.81,0.51c-0.02,0.04-0.03,0.07-0.07,0.09c-0.06,0.04-0.21,0.05-0.25,0.09c-0.02,0.02-0.02,0.04-0.05,0.06
		c-0.02,0.01-0.06,0.03-0.07,0.04c-0.01,0.01-0.01,0.01-0.01,0.01c-0.02,0.02-0.07,0.01-0.12,0.01c-0.04,0-0.21,0.09-0.27,0.14
		c-0.02,0.02-0.04,0.03-0.07,0.05c-0.07,0.03-0.17,0.02-0.25,0.06c-0.09,0.04-0.15,0.13-0.24,0.17c-0.05,0.03-0.12,0.03-0.16,0.05
		c-0.04,0.02-0.06,0.06-0.09,0.1c-0.04,0.05-0.51,0.23-0.8,0.38c-0.2,0.1-0.42,0.26-0.52,0.28c-0.04,0.01-0.08,0.01-0.12,0.03
		c-0.07,0.03-0.14,0.09-0.23,0.1c-0.01,0-0.03,0-0.03,0l0-0.03l-0.12,0.01c0,0,0,0.05-0.01,0.09c-0.02,0.05-0.08,0.05-0.1,0.09
		c-0.02,0.02-0.01,0.06-0.03,0.08c-0.01,0.01-0.04,0.06-0.07,0.08c-0.02,0.02-0.02,0.02-0.01,0.04l0.01,0.02
		c0.01,0.02,0.01,0.03,0,0.04c-0.01,0-0.02,0.01-0.03,0.02c-0.01,0.02,0.03,0.04,0.06,0.04c0.01,0,0.13-0.01,0.19-0.03
		C29.57,12.91,29.58,12.9,29.63,12.87"/>
	<path class="st9" d="M42.3,16.15v-0.54c-0.93,0.62-3.28,2.02-4.08,2.41c-6.06,2.99-13.8,5.54-19.88,4.48
		c-1.55-0.27-5.05-1.48-4.18-4.16c1.02-3.13,5.33-5.74,7.54-6.8c5.5-2.64,11.48-3.72,16.69-3.97c0.86-0.04,2.46-0.01,3.91,0.28V7.12
		c-2.24-0.36-6.18-0.09-7.96,0.14C33.37,7.4,27.23,8.8,26,9.18c-0.89,0.27-1.75,0.55-2.54,0.85c-0.58,0.22-4.05,2.1-4.74,2.57
		c-0.59,0.4-1.26,0.87-1.26,0.87l-0.05-0.09c0,0-1.21,1.01-1.93,1.76c-0.61,0.64-1.59,2.19-1.88,3.18c-0.31,1.1-0.01,2.31,0.41,2.82
		c2.15,2.58,8.09,2.5,11.76,1.84c0.88-0.16,5.31-1.43,6.33-1.81c1.5-0.57,2.98-1.22,4.42-1.85c0.96-0.42,5.14-2.67,5.58-3
		C42.15,16.27,42.22,16.22,42.3,16.15"/>
	<path class="st9" d="M42.3,13.55v-0.36c-0.91,0.82-2,1.68-2.08,1.74c-0.44,0.33-3.09,1.83-3.89,2.21
		c-5.33,2.52-12.08,4.71-17.25,3.93c-1.32-0.2-4.26-1.15-3.39-3.35c1.02-2.58,4.84-4.77,6.78-5.66c4.83-2.23,10.01-3.2,14.5-3.47
		c1.22-0.07,4.15-0.02,5.33,0.91V8.83c-0.5-0.3-1.08-0.49-1.42-0.57c-1.71-0.42-5.68-0.12-7.37,0.12c-0.84,0.12-6.17,1.35-7.24,1.68
		c-0.77,0.23-1.53,0.48-2.22,0.73c-0.51,0.19-3.57,1.77-4.19,2.17c-0.52,0.34-1.12,0.73-1.12,0.73l-0.04-0.08
		c0,0-1.08,0.85-1.73,1.47c-0.56,0.53-1.47,1.81-1.76,2.63c-0.32,0.9-0.12,1.89,0.22,2.3c1.72,2.09,6.82,1.94,9.99,1.35
		c0.76-0.14,4.62-1.24,5.51-1.57c1.32-0.49,2.61-1.04,3.87-1.57c0.85-0.36,4.53-2.25,4.92-2.53C40.15,15.39,41.24,14.46,42.3,13.55"
		/>
	<path class="st9" d="M20.17,13.57c0,0-1,0.68-1.61,1.17c-0.52,0.42-1.41,1.43-1.73,2.08c-0.35,0.71-0.26,1.49-0.01,1.8
		c1.3,1.62,5.67,1.45,8.44,0.95c0.66-0.12,4.06-1.02,4.85-1.29c1.17-0.4,2.32-0.84,3.45-1.27c0.76-0.29,4.07-1.81,4.43-2.04
		c0.56-0.34,2.44-1.75,3.66-2.65c0.16-0.12,0.19-0.14,0.26-0.22c0.23-0.25,0.39-0.7,0.26-0.78c-0.27-0.16-0.46,0.4-0.63,0.65
		c-0.38,0.56-2.95,2.33-3.07,2.4c-0.41,0.26-2.8,1.47-3.52,1.78c-4.78,2.04-10.75,3.82-15.11,3.26c-1.11-0.14-3.55-0.85-2.62-2.59
		c1.1-2.03,4.55-3.79,6.29-4.51c4.33-1.8,8.85-2.61,12.71-2.88c1.06-0.07,3.62-0.06,4.52,0.68c0.19,0.15,0.39,0.41,0.3,0.63
		c-0.11,0.27-0.41,0.56-0.23,0.57c0.26,0.01,0.62-0.44,0.67-0.63c0.23-0.89-1.28-1.41-1.88-1.54c-1.43-0.31-4.85-0.03-6.32,0.18
		c-0.73,0.1-5.4,1.13-6.35,1.39c-0.68,0.19-1.35,0.39-1.96,0.6c-0.45,0.15-3.21,1.43-3.77,1.74c-0.48,0.27-1.02,0.58-1.02,0.58
		L20.17,13.57z"/>
	<path class="st9" d="M21.37,13.64c0,0-0.89,0.54-1.45,0.93c-0.47,0.33-1.3,1.14-1.62,1.64c-0.35,0.56-0.33,1.16-0.14,1.41
		c0.97,1.25,4.68,1.08,7.06,0.67c0.57-0.1,3.51-0.83,4.19-1.05c1.02-0.32,2.03-0.68,3.01-1.03c0.66-0.23,3.58-1.46,3.9-1.63
		c0.5-0.27,2.2-1.4,3.29-2.11c0.14-0.09,0.17-0.11,0.24-0.18c0.21-0.2,0.38-0.55,0.28-0.61C39.9,11.56,39.7,12,39.54,12.2
		c-0.36,0.44-2.67,1.85-2.77,1.9c-0.37,0.21-2.47,1.18-3.11,1.42c-4.19,1.64-9.36,3.09-13,2.69c-0.93-0.1-2.94-0.63-2.01-2
		c1.08-1.6,4.12-3.01,5.65-3.59c3.79-1.45,7.66-2.12,10.95-2.37c0.9-0.07,3.06-0.08,3.77,0.49c0.14,0.12,0.3,0.32,0.21,0.49
		c-0.12,0.22-0.39,0.45-0.24,0.45c0.22,0,0.56-0.35,0.61-0.5c0.26-0.7-0.97-1.09-1.47-1.19c-1.19-0.23-4.09,0.02-5.35,0.2
		c-0.62,0.09-4.64,0.93-5.46,1.15c-0.59,0.16-1.17,0.32-1.7,0.48c-0.39,0.12-2.81,1.14-3.31,1.4c-0.43,0.22-0.9,0.46-0.9,0.46
		L21.37,13.64z"/>
	<path class="st9" d="M22.38,13.82c0,0-0.78,0.44-1.27,0.76c-0.42,0.27-1.17,0.91-1.47,1.31c-0.33,0.44-0.36,0.91-0.22,1.09
		c0.72,0.93,3.82,0.69,5.83,0.3c0.48-0.09,2.98-0.75,3.57-0.94c0.87-0.28,1.74-0.58,2.58-0.88c0.57-0.2,3.08-1.23,3.37-1.37
		c0.43-0.23,1.93-1.14,2.89-1.72c0.13-0.08,0.15-0.09,0.21-0.14c0.19-0.16,0.36-0.44,0.28-0.48c-0.17-0.09-0.37,0.25-0.52,0.41
		c-0.33,0.35-2.36,1.5-2.45,1.55c-0.32,0.17-2.15,0.98-2.69,1.19c-3.61,1.39-8.03,2.66-11.03,2.46c-0.76-0.05-2.4-0.4-1.53-1.48
		c1.01-1.26,3.66-2.44,4.97-2.93c3.26-1.23,6.54-1.87,9.29-2.15c0.76-0.08,2.56-0.15,3.1,0.26c0.11,0.09,0.23,0.24,0.14,0.37
		c-0.11,0.17-0.35,0.35-0.23,0.35c0.18-0.01,0.49-0.29,0.55-0.4c0.27-0.55-0.73-0.81-1.14-0.87c-0.97-0.14-3.41,0.14-4.47,0.31
		c-0.53,0.09-3.93,0.86-4.63,1.05c-0.5,0.14-1,0.28-1.45,0.42c-0.33,0.11-2.43,0.97-2.86,1.17c-0.37,0.18-0.79,0.39-0.79,0.39
		L22.38,13.82z"/>
	<path class="st9" d="M23.27,13.98c0,0-0.68,0.36-1.11,0.61c-0.36,0.22-1.03,0.73-1.31,1.04c-0.3,0.35-0.36,0.7-0.26,0.84
		c0.53,0.7,3.11,0.45,4.8,0.1c0.4-0.08,2.52-0.64,3.02-0.8c0.74-0.23,1.48-0.49,2.2-0.73c0.48-0.17,2.64-1.01,2.88-1.13
		c0.38-0.18,1.68-0.92,2.51-1.39c0.11-0.06,0.13-0.07,0.18-0.11c0.17-0.13,0.32-0.34,0.26-0.37c-0.13-0.07-0.32,0.2-0.46,0.33
		c-0.3,0.28-2.06,1.21-2.13,1.24c-0.28,0.14-1.84,0.8-2.31,0.97c-3.08,1.15-6.83,2.22-9.29,2.14c-0.63-0.02-1.96-0.25-1.16-1.1
		c0.93-0.99,3.19-1.96,4.32-2.36c2.79-1.02,5.54-1.58,7.84-1.86c0.63-0.08,2.12-0.17,2.55,0.13c0.09,0.06,0.17,0.18,0.09,0.28
		c-0.11,0.13-0.32,0.28-0.22,0.28c0.15-0.01,0.42-0.23,0.48-0.32c0.26-0.43-0.55-0.61-0.88-0.64c-0.79-0.09-2.83,0.18-3.72,0.34
		c-0.44,0.08-3.31,0.75-3.91,0.91c-0.43,0.12-0.84,0.24-1.23,0.36c-0.28,0.09-2.07,0.8-2.45,0.97C23.64,13.84,23.28,14,23.28,14
		L23.27,13.98z"/>
	<path class="st9" d="M24.02,14.12c0,0-0.59,0.29-0.97,0.49c-0.32,0.17-0.92,0.57-1.17,0.81c-0.28,0.26-0.37,0.53-0.3,0.63
		c0.36,0.49,2.5,0.21,3.91-0.1c0.34-0.08,2.12-0.56,2.55-0.7c0.63-0.2,1.26-0.41,1.87-0.62c0.41-0.14,2.26-0.84,2.47-0.93
		c0.32-0.15,1.46-0.73,2.19-1.11c0.1-0.05,0.11-0.06,0.16-0.09c0.15-0.1,0.3-0.26,0.25-0.28c-0.1-0.04-0.29,0.16-0.41,0.26
		c-0.27,0.21-1.8,0.96-1.87,0.99c-0.24,0.11-1.59,0.65-1.99,0.8c-2.63,0.95-5.8,1.88-7.81,1.91c-0.51,0.01-1.57-0.11-0.84-0.76
		c0.86-0.76,2.81-1.55,3.77-1.89c2.38-0.85,4.69-1.36,6.59-1.65c0.52-0.08,1.75-0.21,2.07,0c0.07,0.04,0.12,0.12,0.04,0.2
		c-0.1,0.1-0.29,0.22-0.2,0.21c0.12-0.01,0.37-0.18,0.42-0.25c0.26-0.32-0.39-0.42-0.65-0.44c-0.64-0.04-2.33,0.24-3.07,0.38
		c-0.37,0.07-2.78,0.67-3.28,0.81c-0.36,0.1-0.71,0.2-1.04,0.31c-0.24,0.08-1.78,0.66-2.1,0.8c-0.28,0.12-0.59,0.25-0.59,0.25
		L24.02,14.12z"/>
	<path class="st9" d="M28.02,13.21c-3,0.87-5.37,1.86-5.3,2.22c0.07,0.36,2.55-0.05,5.55-0.91c3-0.86,5.37-1.86,5.3-2.22
		C33.5,11.94,31.01,12.35,28.02,13.21 M22.93,15.38c0.31-0.25,0.61-0.42,0.98-0.55c2.24-0.94,4.19-1.56,6.54-2.07
		c0.79-0.19,1.47-0.31,2.27-0.4c0.22-0.03,0.41-0.03,0.64,0c-0.15,0.13-0.29,0.22-0.47,0.3c-0.47,0.24-0.87,0.42-1.36,0.6
		c-1.96,0.75-3.66,1.26-5.7,1.72c-0.79,0.19-1.47,0.31-2.27,0.4C23.34,15.41,23.15,15.41,22.93,15.38"/>
	<path class="st8" d="M42.3,17.78v-0.5c-0.8,0.52-3.54,2.03-4.43,2.43c-6.31,2.86-14.39,5.26-20.77,4.15
		c-1.52-0.27-4.86-1.37-4.54-3.66c0.26-0.47,0.38-0.95,0.36-1.5c-0.42,0.3-0.7,0.68-0.87,1.18c0,0,0,0,0.01,0.01l-0.02,0.02
		c-0.21,1.01,0.1,2.09,0.52,2.56c2.28,2.56,8.5,2.56,12.33,1.96c0.92-0.14,5.55-1.33,6.61-1.7c1.57-0.54,3.11-1.16,4.6-1.76
		c1.01-0.4,5.35-2.56,5.81-2.88C42.01,18.01,42.15,17.91,42.3,17.78"/>
	<path class="st8" d="M42.3,6.52V6.34c-1.07-0.14-2.15-0.28-2.55-0.3c-0.39-0.02-3.79,0.18-4.55,0.27
		c-1.13,0.13-2.29,0.27-3.45,0.45c-0.78,0.12-4.08,0.82-4.71,1c-0.59,0.17-1.24,0.38-1.91,0.63l0.01,0.01
		c-0.8,0.29-1.49,0.55-2.29,0.87c0.86-0.31,1.6-0.49,2.49-0.63l0.01,0.01c0.02-0.01,0.03-0.01,0.05-0.02c0.01,0,0.02,0,0.02,0l0,0
		c3.45-1.24,7.65-1.92,11.29-2.23c0.74-0.06,3.22-0.13,3.66-0.1C40.43,6.3,41.4,6.39,42.3,6.52"/>
	<path class="st10" d="M36.61,6.71l-4.75,3.6c-1.02-0.97-2.28-1.71-3.76-2.23c-1.48-0.52-3.09-0.78-4.82-0.78
		c-2.43,0-4.75,0.51-6.97,1.53c-2.22,1.02-3.95,2.36-5.19,4.04c-1.24,1.67-1.85,3.46-1.85,5.35c0,2.58,1.09,4.72,3.26,6.42
		c2.17,1.71,4.96,2.56,8.37,2.56c3.64,0,6.79-0.86,9.46-2.58l3.85,4.14c-3.95,2.28-8.53,3.42-13.73,3.42c-3.65,0-6.76-0.57-9.32-1.7
		c-2.56-1.13-4.62-2.8-6.17-4.99c-1.55-2.2-2.33-4.58-2.33-7.14c0-2.74,0.92-5.37,2.75-7.89c1.84-2.52,4.32-4.5,7.46-5.95
		c3.13-1.45,6.55-2.17,10.26-2.17C28.31,2.32,32.81,3.78,36.61,6.71"/>
	<path class="st11" d="M24.53,8.92l2.01-0.65c-1-0.23-2.07-0.34-3.26-0.34c-4.69-0.05-8.71,1.79-11.64,5.32
		c-1.26,1.56-1.82,3.44-1.7,5.28c0.1-1.52,0.65-3.04,1.7-4.33c2.93-3.53,6.95-5.37,11.64-5.32C23.7,8.88,24.12,8.89,24.53,8.92"/>
	<path class="st11" d="M9.26,31.21h2.05c-0.13-0.05-0.27-0.1-0.4-0.15l-0.03-0.01c-5.53-2.31-8.68-7.24-8.87-12.34
		C1.83,23.61,4.42,28.51,9.26,31.21"/>
	<path class="st11" d="M30.09,31.21h2.41c0.93-0.41,1.84-0.86,2.73-1.35l-0.59-0.63C33.16,30.01,31.64,30.67,30.09,31.21"/>
	<polygon class="st12" points="42.84,33.27 42.84,31.36 2.55,31.36 2.29,33.27 	"/>
	<path class="st12" d="M42.15,35.33l-3.71,2.13c-0.97-1.18-2.05-1.77-3.27-1.77c-0.59,0-1.09,0.12-1.51,0.34
		c-0.42,0.23-0.65,0.49-0.7,0.77c-0.05,0.29,0.04,0.56,0.26,0.81c0.31,0.34,1.28,1.07,2.91,2.2c1.54,1.04,2.46,1.69,2.78,1.97
		c0.79,0.67,1.33,1.3,1.6,1.91c0.27,0.61,0.35,1.27,0.22,1.99c-0.25,1.4-1.12,2.56-2.62,3.48c-1.5,0.91-3.33,1.37-5.49,1.37
		c-1.68,0-3.1-0.3-4.25-0.9c-1.15-0.6-2.05-1.54-2.72-2.82l4.07-1.65c0.87,1.51,2.05,2.27,3.53,2.27c0.77,0,1.45-0.16,2.03-0.49
		c0.58-0.33,0.91-0.7,0.99-1.13c0.07-0.39-0.06-0.78-0.39-1.16c-0.33-0.39-1.1-0.98-2.31-1.78c-2.31-1.52-3.77-2.69-4.37-3.52
		c-0.61-0.83-0.84-1.65-0.69-2.47c0.21-1.19,1.01-2.2,2.41-3.05c1.4-0.85,3.02-1.27,4.85-1.27c1.18,0,2.27,0.2,3.27,0.59
		C40.05,33.56,41.08,34.28,42.15,35.33"/>
	<path class="st7" d="M29.96,34.29c0.27-0.22,0.56-0.41,0.89-0.58c0.03-0.02,0.06-0.04,0.09-0.05H2.24l-0.09,0.63H29.96z"/>
	<path class="st7" d="M40.3,33.66c0.2,0.12,0.4,0.25,0.6,0.39c0.11,0.08,0.21,0.17,0.32,0.25h1.63v-0.63H40.3z"/>
	<path class="st13" d="M79.07,32.51H69c-4.99,0-7.38-0.69-9.63-2.86c-2.47-2.39-3.82-6.38-3.82-11.54c0-6.51,2.3-11.32,6.38-13.23
		c1.65-0.78,4.51-1.3,7.33-1.3h9.81v5.16H70c-2.86,0-4.9,0.78-6.16,2.34c-0.96,1.17-1.48,3.47-1.48,6.46c0,4.25,0.91,7.24,2.65,8.5
		c1.13,0.87,2.86,1.3,5.21,1.3h8.85V32.51z"/>
	<path class="st13" d="M89.3,20.92c0,2.82,0.43,4.21,1.6,5.29c1.13,1,3.04,1.65,4.99,1.65c2.82,0,5.03-1.04,5.81-2.78
		c0.35-0.82,0.52-2.08,0.52-4.17V3.57h6.16v17.05c0,4.64-0.96,7.46-3.12,9.28c-2.3,1.91-5.34,2.82-9.5,2.82
		c-4.64,0-7.9-1.04-9.98-3.12c-2-2.04-2.65-4.12-2.65-8.55V3.57h6.16V20.92z"/>
	<path class="st13" d="M119.8,3.57v16.23c0.22,5.03,0.3,5.29,1.43,6.29c1.13,1,2.43,1.26,6.33,1.26h5.9v5.16h-6.55
		c-4.08,0-5.03-0.09-6.51-0.48c-2.95-0.78-5.16-2.78-6.07-5.55c-0.43-1.3-0.69-3.69-0.69-6.68V3.57H119.8z"/>
	<path class="st13" d="M158.76,8.73h-8.03c-4.17,0-5.73,0.48-6.99,2.13c-0.87,1.17-1.04,1.82-1.26,4.68h16.27v5.16h-16.27
		c0.43,4.95,2.6,6.64,8.5,6.64h7.77v5.16h-8.03c-6.16,0-9.11-0.82-11.41-3.25c-2.47-2.56-3.82-6.6-3.82-11.41
		c0-5.12,1.69-9.2,4.9-11.93c2.04-1.74,4.03-2.34,7.94-2.34h10.41V8.73z"/>
	<polygon class="st13" points="179.76,26.17 187.35,3.57 196.34,3.57 196.34,32.51 190.48,32.51 190.48,10.77 182.89,32.51 
		176.55,32.51 169.39,10.77 169.39,32.51 163.54,32.51 163.54,3.57 172.56,3.57 	"/>
	<path class="st14" d="M158.54,50.51h5.22c0.91,0,1.41-0.09,1.7-0.27c0.36-0.22,0.57-0.6,0.57-1.05c0-0.53-0.27-1-0.74-1.22
		c-0.24-0.14-0.69-0.21-1.24-0.21h-2.11c-1.37,0-2.27-0.24-2.87-0.76c-0.69-0.6-1.08-1.53-1.08-2.51c0-1.48,0.79-2.75,1.99-3.16
		c0.52-0.19,1.12-0.24,2.46-0.24h5.67v2.04h-5.12c-1.08,0.02-1.17,0.02-1.53,0.1c-0.48,0.12-0.77,0.57-0.77,1.17
		c0,0.52,0.24,0.93,0.65,1.12c0.34,0.15,0.62,0.19,1.44,0.19h1.84c1.68,0,2.59,0.26,3.26,0.94c0.52,0.52,0.86,1.53,0.86,2.51
		c0,1.24-0.57,2.37-1.46,2.92c-0.57,0.36-1.29,0.46-2.99,0.46h-5.76V50.51z"/>
	<path class="st14" d="M170.72,41.1h2.3v3.09h2.13v1.79h-2.13v3.04c0,0.86,0.03,1.12,0.19,1.34c0.19,0.28,0.55,0.41,1.03,0.41h0.91
		v1.79h-1.67c-0.96,0-1.58-0.19-2.03-0.64c-0.57-0.53-0.74-1.15-0.74-2.51v-3.44h-1.46v-1.79h1.46V41.1z"/>
	<path class="st14" d="M183.35,49.26h-4.85c0.05,0.64,0.2,0.94,0.62,1.22c0.33,0.22,0.69,0.29,1.41,0.29h2.82v1.79h-3.06
		c-1.32,0-2.06-0.2-2.82-0.79c-1-0.76-1.51-1.96-1.51-3.5c0-1.46,0.64-2.8,1.63-3.47c0.64-0.43,1.39-0.6,2.53-0.6h3.23v1.79h-3.06
		c-1.26,0-1.68,0.34-1.79,1.49h4.85V49.26z M180.86,43.19h-1.48l1.58-2.23h2.03L180.86,43.19z"/>
	<path class="st14" d="M189.28,44.19c1.56,0,2.22,0.15,2.92,0.72c0.98,0.75,1.5,1.99,1.5,3.59c0,1.2-0.38,2.23-1.1,2.97
		c-0.74,0.76-1.61,1.08-3.01,1.08h-2.03v3.14h-2.3V44.19H189.28z M187.56,50.77h1.41c1.58,0,2.37-0.81,2.37-2.44
		c0-1.51-0.79-2.35-2.2-2.35h-1.58V50.77z"/>
	<path class="st14" d="M197.7,44.19h2.35c1.39,0,2.09,0.19,2.65,0.74c0.52,0.5,0.79,1.32,0.79,2.41v5.22h-2.3V47.8
		c0-1.49-0.29-1.82-1.63-1.82h-1.86v6.58h-2.3V41.1h2.3V44.19z"/>
	<path class="st14" d="M211.42,47.47c0-1.19-0.36-1.49-1.75-1.49h-3.88v-1.79h3.88c1.39,0,1.7,0.03,2.25,0.21
		c0.74,0.24,1.34,0.89,1.61,1.75c0.16,0.48,0.19,0.81,0.19,1.7v4.71h-4.85c-1.79,0-2.22-0.07-2.73-0.45
		c-0.62-0.45-0.96-1.19-0.96-2.03c0-1.17,0.62-2.13,1.53-2.42c0.38-0.12,1.05-0.19,1.89-0.19H211.42z M208.76,49.26
		c-0.55,0-0.55,0-0.74,0.05c-0.31,0.09-0.5,0.38-0.5,0.72c0,0.53,0.34,0.74,1.24,0.74h2.66v-1.51H208.76z"/>
	<path class="st14" d="M220.31,44.19c1.34,0,1.89,0.15,2.47,0.67c0.58,0.55,0.88,1.37,0.88,2.54v5.15h-2.3v-5.41
		c0-0.84-0.34-1.17-1.19-1.17h-1.99v6.58h-2.3v-8.37H220.31z"/>
	<path class="st14" d="M232.62,49.26h-4.84c0.05,0.64,0.21,0.95,0.62,1.22c0.33,0.22,0.69,0.29,1.41,0.29h2.82v1.79h-3.06
		c-1.32,0-2.06-0.2-2.82-0.79c-1-0.76-1.51-1.96-1.51-3.51c0-1.46,0.64-2.8,1.63-3.47c0.64-0.43,1.39-0.6,2.53-0.6h3.23v1.79h-3.06
		c-1.25,0-1.68,0.34-1.78,1.49h4.84V49.26z"/>
	<rect x="113.64" y="37.71" class="st14" width="118.99" height="1.18"/>
	<path class="st15" d="M185.41,0.86l-5.58,16.61l-5.29-16.61h-26.19c-4.51,0-7.13,0.81-9.69,2.99c-3.83,3.26-5.85,8.1-5.85,13.99
		c0,2.45,0.32,4.74,0.94,6.8h-6.17c-3.6,0-4.17-0.25-4.54-0.58c-0.1-0.09-0.17-0.15-0.21-0.19c-0.15-0.57-0.24-2.6-0.31-4.13V0.86
		H99.52v20.06c0,1.99-0.18,2.78-0.29,3.08c-0.29,0.58-1.51,1.15-3.34,1.15c-1.43,0-2.64-0.49-3.18-0.95
		C92.41,23.92,92,23.47,92,20.92V0.86H69.26c-3.2,0-6.46,0.6-8.48,1.56c-5.04,2.36-7.94,8.08-7.94,15.68
		c0,5.89,1.61,10.55,4.65,13.49c3.15,3.03,6.6,3.62,11.51,3.62h12.77v-6.62c0.5,1.01,1.19,1.98,2.11,2.92
		c2.63,2.64,6.52,3.92,11.89,3.92c4.76,0,8.44-1.13,11.24-3.45c2.45-2.05,3.72-4.96,4.02-9.24c0.1,1.64,0.32,3.33,0.74,4.59
		c1.19,3.63,4.09,6.3,7.95,7.32c1.78,0.47,2.99,0.57,7.2,0.57h9.26v-5.53c0.37,0.51,0.76,0.99,1.19,1.43
		c3.24,3.43,7.36,4.1,13.38,4.1h21.36v-7.59l2.5,7.59h10.21l2.97-8.5v8.5h11.27V0.86H185.41z M70.21,24.64
		c-2.26,0-3.2-0.46-3.56-0.74l-0.06-0.04c-0.71-0.51-1.53-2.47-1.53-6.32c0-2.92,0.54-4.36,0.88-4.77c0.27-0.33,1.08-1.33,4.06-1.33
		h10.44v9.62c0,1.3,0.05,2.48,0.19,3.59H70.21z"/>
</g>
<g>
	<path class="st16" d="M165.51,71.66c-0.45-0.55-1.01-0.83-1.68-0.83c-0.29,0-0.56,0.05-0.81,0.16s-0.47,0.25-0.65,0.44
		c-0.18,0.18-0.32,0.4-0.43,0.65c-0.1,0.25-0.15,0.53-0.15,0.82c0,0.3,0.05,0.58,0.15,0.83c0.1,0.25,0.25,0.47,0.43,0.66
		c0.18,0.19,0.4,0.33,0.65,0.44c0.25,0.11,0.51,0.16,0.8,0.16c0.63,0,1.19-0.27,1.69-0.8v2.32l-0.2,0.07
		c-0.3,0.11-0.58,0.19-0.84,0.23c-0.26,0.05-0.52,0.08-0.77,0.08c-0.52,0-1.02-0.1-1.5-0.29c-0.48-0.2-0.9-0.47-1.26-0.83
		c-0.36-0.36-0.65-0.78-0.88-1.27c-0.22-0.49-0.33-1.02-0.33-1.6s0.11-1.11,0.32-1.59s0.51-0.9,0.87-1.25
		c0.36-0.35,0.79-0.62,1.27-0.82c0.48-0.2,0.98-0.29,1.51-0.29c0.3,0,0.6,0.03,0.89,0.1c0.29,0.06,0.59,0.16,0.92,0.29V71.66z"/>
	<path class="st16" d="M169,72.05h2.83v-2.91h1.96v7.54h-1.96v-3.11H169v3.11h-1.96v-7.54H169V72.05z"/>
	<path class="st16" d="M180.09,75.37h-2.8l-0.45,1.31h-2.09l2.87-7.54h2.14l2.87,7.54h-2.09L180.09,75.37z M179.57,73.89l-0.88-2.51
		l-0.88,2.51H179.57z"/>
	<path class="st16" d="M185.3,69.14v4.1c0,0.22,0.01,0.44,0.02,0.67s0.07,0.44,0.15,0.62c0.08,0.19,0.22,0.34,0.4,0.46
		c0.18,0.12,0.43,0.18,0.76,0.18s0.58-0.06,0.75-0.18s0.31-0.27,0.4-0.46c0.09-0.19,0.14-0.4,0.15-0.62s0.03-0.46,0.03-0.67v-4.1
		h1.95v4.37c0,1.17-0.27,2.03-0.8,2.57c-0.54,0.54-1.36,0.81-2.48,0.81s-1.94-0.27-2.48-0.81s-0.81-1.4-0.81-2.57v-4.37H185.3z"/>
	<path class="st16" d="M195.95,70.8h-2.36v1.26h2.15v1.66h-2.15v2.96h-1.96v-7.54h4.32V70.8z"/>
	<path class="st16" d="M201.57,70.8h-2.36v1.26h2.15v1.66h-2.15v2.96h-1.96v-7.54h4.32V70.8z"/>
	<path class="st16" d="M207.09,75.37h-2.8l-0.45,1.31h-2.09l2.87-7.54h2.14l2.87,7.54h-2.09L207.09,75.37z M206.57,73.89l-0.88-2.51
		l-0.88,2.51H206.57z"/>
	<path class="st16" d="M214.03,72.46h3.89c0,0.4-0.02,0.76-0.05,1.09c-0.03,0.33-0.1,0.63-0.2,0.91c-0.14,0.39-0.33,0.74-0.57,1.05
		c-0.24,0.3-0.52,0.56-0.84,0.76c-0.32,0.2-0.68,0.36-1.06,0.46c-0.39,0.11-0.79,0.16-1.22,0.16c-0.59,0-1.12-0.1-1.6-0.29
		s-0.9-0.46-1.25-0.81s-0.62-0.77-0.81-1.26c-0.19-0.49-0.29-1.03-0.29-1.62c0-0.59,0.09-1.12,0.28-1.62
		c0.19-0.49,0.46-0.91,0.81-1.25s0.77-0.62,1.27-0.81c0.49-0.19,1.04-0.29,1.65-0.29c0.79,0,1.48,0.17,2.07,0.51
		c0.59,0.34,1.06,0.87,1.41,1.58l-1.86,0.77c-0.17-0.41-0.4-0.71-0.68-0.89c-0.28-0.18-0.59-0.27-0.94-0.27
		c-0.29,0-0.56,0.05-0.8,0.17c-0.24,0.11-0.45,0.27-0.62,0.47c-0.17,0.2-0.3,0.45-0.4,0.73c-0.1,0.29-0.15,0.61-0.15,0.96
		c0,0.32,0.04,0.62,0.12,0.89s0.21,0.51,0.38,0.71c0.17,0.2,0.37,0.35,0.62,0.47c0.25,0.11,0.53,0.16,0.86,0.16
		c0.19,0,0.38-0.02,0.56-0.06c0.18-0.04,0.34-0.11,0.48-0.21c0.14-0.1,0.26-0.22,0.35-0.38c0.09-0.15,0.16-0.34,0.19-0.56h-1.61
		V72.46z"/>
	<path class="st16" d="M223.56,70.8h-2.33v1.26h2.2v1.66h-2.2v1.3h2.33v1.66h-4.29v-7.54h4.29V70.8z"/>
</g>
<g>
	<path class="st17" d="M231.38,71.26c0.21,0,0.41,0.04,0.6,0.13c0.19,0.09,0.35,0.2,0.49,0.35c0.14,0.15,0.25,0.31,0.33,0.5
		s0.12,0.38,0.12,0.59c0,0.22-0.04,0.43-0.12,0.62s-0.19,0.36-0.33,0.5c-0.14,0.14-0.3,0.26-0.5,0.34
		c-0.19,0.08-0.39,0.12-0.61,0.12c-0.21,0-0.41-0.04-0.6-0.12s-0.35-0.19-0.49-0.33c-0.14-0.14-0.25-0.31-0.33-0.5
		c-0.08-0.19-0.12-0.4-0.12-0.61c0-0.22,0.04-0.43,0.12-0.62s0.19-0.36,0.33-0.5c0.14-0.14,0.31-0.26,0.5-0.34
		S231.16,71.26,231.38,71.26z"/>
</g>
<g>
	<path class="st16" d="M171.91,86.07c-0.21-0.17-0.43-0.3-0.64-0.39c-0.21-0.08-0.42-0.12-0.62-0.12c-0.25,0-0.46,0.06-0.62,0.18
		c-0.16,0.12-0.24,0.28-0.24,0.47c0,0.13,0.04,0.24,0.12,0.33c0.08,0.09,0.19,0.16,0.31,0.23s0.28,0.12,0.44,0.17
		c0.16,0.05,0.32,0.1,0.48,0.15c0.64,0.21,1.11,0.5,1.41,0.85c0.3,0.36,0.44,0.82,0.44,1.4c0,0.39-0.06,0.74-0.19,1.05
		c-0.13,0.31-0.32,0.58-0.57,0.8c-0.25,0.22-0.56,0.4-0.92,0.52c-0.36,0.12-0.77,0.19-1.23,0.19c-0.95,0-1.84-0.28-2.65-0.85
		l0.84-1.58c0.29,0.26,0.58,0.45,0.87,0.58c0.29,0.13,0.57,0.19,0.85,0.19c0.32,0,0.56-0.07,0.72-0.22c0.16-0.15,0.23-0.31,0.23-0.5
		c0-0.11-0.02-0.21-0.06-0.29s-0.11-0.16-0.2-0.23c-0.09-0.07-0.22-0.14-0.37-0.2s-0.33-0.13-0.54-0.2
		c-0.25-0.08-0.5-0.17-0.75-0.27s-0.46-0.23-0.65-0.39c-0.19-0.16-0.34-0.36-0.46-0.6c-0.12-0.24-0.18-0.55-0.18-0.92
		c0-0.37,0.06-0.71,0.19-1.02c0.12-0.3,0.3-0.56,0.52-0.78c0.22-0.22,0.5-0.39,0.82-0.5c0.32-0.12,0.69-0.18,1.08-0.18
		c0.37,0,0.76,0.05,1.17,0.15c0.41,0.1,0.8,0.26,1.17,0.46L171.91,86.07z"/>
	<path class="st16" d="M178.84,90.37h-2.8l-0.45,1.31h-2.09l2.87-7.54h2.14l2.87,7.54h-2.09L178.84,90.37z M178.32,88.89l-0.88-2.51
		l-0.88,2.51H178.32z"/>
	<path class="st16" d="M182.34,91.68v-7.54h1.96l3.62,4.61v-4.61h1.95v7.54h-1.95l-3.62-4.61v4.61H182.34z"/>
	<path class="st16" d="M193.56,84.14v7.54h-1.96v-7.54H193.56z"/>
	<path class="st16" d="M198.1,85.8v5.88h-1.96V85.8h-1.61v-1.66h5.18v1.66H198.1z"/>
	<path class="st16" d="M204.88,90.37h-2.8l-0.45,1.31h-2.09l2.87-7.54h2.14l2.87,7.54h-2.09L204.88,90.37z M204.36,88.89l-0.88-2.51
		l-0.88,2.51H204.36z"/>
	<path class="st16" d="M210.34,84.14v7.54h-1.96v-7.54H210.34z"/>
	<path class="st16" d="M218.34,91.68h-2.44l-1.87-2.9v2.9h-1.96v-7.54h3.05c0.42,0,0.79,0.06,1.1,0.19s0.57,0.29,0.77,0.5
		c0.2,0.21,0.36,0.46,0.46,0.74c0.1,0.28,0.16,0.58,0.16,0.9c0,0.57-0.14,1.04-0.42,1.4c-0.28,0.36-0.69,0.6-1.23,0.73L218.34,91.68
		z M214.03,87.51h0.37c0.39,0,0.68-0.08,0.89-0.24c0.21-0.16,0.31-0.39,0.31-0.69c0-0.3-0.1-0.53-0.31-0.69
		c-0.21-0.16-0.5-0.24-0.89-0.24h-0.37V87.51z"/>
	<path class="st16" d="M223.57,85.8h-2.33v1.26h2.2v1.66h-2.2v1.3h2.33v1.66h-4.29v-7.54h4.29V85.8z"/>
</g>
<g>
	<path class="st17" d="M231.38,86.26c0.21,0,0.41,0.04,0.6,0.13c0.19,0.09,0.35,0.2,0.49,0.35c0.14,0.15,0.25,0.31,0.33,0.5
		s0.12,0.38,0.12,0.59c0,0.22-0.04,0.43-0.12,0.62s-0.19,0.36-0.33,0.5c-0.14,0.14-0.3,0.26-0.5,0.34
		c-0.19,0.08-0.39,0.12-0.61,0.12c-0.21,0-0.41-0.04-0.6-0.12s-0.35-0.19-0.49-0.33c-0.14-0.14-0.25-0.31-0.33-0.5
		c-0.08-0.19-0.12-0.4-0.12-0.61c0-0.22,0.04-0.43,0.12-0.62s0.19-0.36,0.33-0.5c0.14-0.14,0.31-0.26,0.5-0.34
		S231.16,86.26,231.38,86.26z"/>
</g>
<g>
	<path class="st16" d="M153.03,99.14l1.82,4.59l1.83-4.59h2.13l-3.18,7.54h-1.56l-3.17-7.54H153.03z"/>
	<path class="st16" d="M164,100.8h-2.33v1.26h2.2v1.66h-2.2v1.3H164v1.66h-4.29v-7.54H164V100.8z"/>
	<path class="st16" d="M165.62,106.68v-7.54h1.96l3.62,4.61v-4.61h1.95v7.54h-1.95l-3.62-4.61v4.61H165.62z"/>
	<path class="st16" d="M177.68,100.8v5.88h-1.96v-5.88h-1.61v-1.66h5.18v1.66H177.68z"/>
	<path class="st16" d="M182.22,99.14v7.54h-1.96v-7.54H182.22z"/>
	<path class="st16" d="M185.91,99.14v5.88h2.35v1.66h-4.31v-7.54H185.91z"/>
	<path class="st16" d="M194.27,105.37h-2.8l-0.45,1.31h-2.09l2.87-7.54h2.14l2.87,7.54h-2.09L194.27,105.37z M193.75,103.89
		l-0.88-2.51l-0.88,2.51H193.75z"/>
	<path class="st16" d="M200.2,100.8v5.88h-1.96v-5.88h-1.61v-1.66h5.18v1.66H200.2z"/>
	<path class="st16" d="M204.74,99.14v7.54h-1.96v-7.54H204.74z"/>
	<path class="st16" d="M206.12,102.91c0-0.56,0.1-1.08,0.31-1.56c0.21-0.48,0.49-0.91,0.86-1.27c0.37-0.36,0.8-0.64,1.31-0.84
		c0.51-0.2,1.07-0.31,1.69-0.31c0.61,0,1.17,0.1,1.68,0.31c0.51,0.2,0.96,0.48,1.33,0.84s0.66,0.78,0.87,1.27
		c0.21,0.48,0.31,1,0.31,1.56s-0.1,1.08-0.31,1.56c-0.21,0.48-0.5,0.91-0.87,1.27s-0.81,0.64-1.33,0.84
		c-0.51,0.2-1.07,0.31-1.68,0.31c-0.61,0-1.18-0.1-1.69-0.31c-0.51-0.2-0.95-0.48-1.31-0.84c-0.37-0.36-0.65-0.78-0.86-1.27
		C206.23,104,206.12,103.47,206.12,102.91z M208.17,102.91c0,0.3,0.06,0.58,0.17,0.83s0.27,0.47,0.46,0.66
		c0.19,0.19,0.42,0.33,0.68,0.43c0.26,0.1,0.53,0.16,0.81,0.16s0.56-0.05,0.81-0.16c0.26-0.1,0.48-0.25,0.68-0.43
		c0.2-0.19,0.35-0.41,0.46-0.66s0.17-0.53,0.17-0.83s-0.06-0.58-0.17-0.83s-0.27-0.47-0.46-0.66c-0.2-0.19-0.42-0.33-0.68-0.44
		c-0.26-0.1-0.53-0.16-0.81-0.16s-0.56,0.05-0.81,0.16c-0.26,0.1-0.48,0.25-0.68,0.44c-0.19,0.19-0.35,0.41-0.46,0.66
		S208.17,102.61,208.17,102.91z"/>
	<path class="st16" d="M215.84,106.68v-7.54h1.96l3.62,4.61v-4.61h1.95v7.54h-1.95l-3.62-4.61v4.61H215.84z"/>
</g>
<g>
	<path class="st17" d="M231.38,101.26c0.21,0,0.41,0.04,0.6,0.13c0.19,0.09,0.35,0.2,0.49,0.35c0.14,0.15,0.25,0.31,0.33,0.5
		s0.12,0.38,0.12,0.59c0,0.22-0.04,0.43-0.12,0.62s-0.19,0.36-0.33,0.5c-0.14,0.14-0.3,0.26-0.5,0.34
		c-0.19,0.08-0.39,0.12-0.61,0.12c-0.21,0-0.41-0.04-0.6-0.12s-0.35-0.19-0.49-0.33c-0.14-0.14-0.25-0.31-0.33-0.5
		c-0.08-0.19-0.12-0.4-0.12-0.61c0-0.22,0.04-0.43,0.12-0.62s0.19-0.36,0.33-0.5c0.14-0.14,0.31-0.26,0.5-0.34
		S231.16,101.26,231.38,101.26z"/>
</g>
<g>
	<path class="st16" d="M145.34,116.66c-0.45-0.55-1.01-0.83-1.68-0.83c-0.29,0-0.56,0.05-0.81,0.16s-0.47,0.25-0.65,0.44
		c-0.18,0.18-0.32,0.4-0.43,0.65c-0.1,0.25-0.15,0.53-0.15,0.82c0,0.3,0.05,0.58,0.15,0.83c0.1,0.25,0.25,0.47,0.43,0.66
		c0.18,0.19,0.4,0.33,0.65,0.44c0.25,0.11,0.51,0.16,0.8,0.16c0.63,0,1.19-0.27,1.69-0.8v2.32l-0.2,0.07
		c-0.3,0.11-0.58,0.19-0.84,0.23c-0.26,0.05-0.52,0.08-0.77,0.08c-0.52,0-1.02-0.1-1.5-0.29c-0.48-0.2-0.9-0.47-1.26-0.83
		c-0.36-0.36-0.65-0.78-0.88-1.27c-0.22-0.49-0.33-1.02-0.33-1.6s0.11-1.11,0.32-1.59s0.51-0.9,0.87-1.25
		c0.36-0.35,0.79-0.62,1.27-0.82c0.48-0.2,0.98-0.29,1.51-0.29c0.3,0,0.6,0.03,0.89,0.1c0.29,0.06,0.59,0.16,0.92,0.29V116.66z"/>
	<path class="st16" d="M148.83,114.14v5.88h2.35v1.66h-4.31v-7.54H148.83z"/>
	<path class="st16" d="M154.18,114.14v7.54h-1.96v-7.54H154.18z"/>
	<path class="st16" d="M155.5,121.68l1.28-7.54h1.94l1.51,4.02l1.5-4.02h1.94l1.28,7.54H163l-0.65-4.34l-1.78,4.34h-0.78l-1.69-4.34
		l-0.65,4.34H155.5z"/>
	<path class="st16" d="M171.08,120.37h-2.8l-0.45,1.31h-2.09l2.87-7.54h2.14l2.87,7.54h-2.09L171.08,120.37z M170.56,118.89
		l-0.88-2.51l-0.88,2.51H170.56z"/>
	<path class="st16" d="M177.02,115.8v5.88h-1.96v-5.88h-1.61v-1.66h5.18v1.66H177.02z"/>
	<path class="st16" d="M181.55,114.14v7.54h-1.96v-7.54H181.55z"/>
	<path class="st16" d="M187.35,116.07c-0.21-0.17-0.43-0.3-0.64-0.39c-0.21-0.08-0.42-0.12-0.62-0.12c-0.25,0-0.46,0.06-0.62,0.18
		c-0.16,0.12-0.24,0.28-0.24,0.47c0,0.13,0.04,0.24,0.12,0.33c0.08,0.09,0.19,0.16,0.31,0.23s0.28,0.12,0.44,0.17
		c0.16,0.05,0.32,0.1,0.48,0.15c0.64,0.21,1.11,0.5,1.41,0.85c0.3,0.36,0.44,0.82,0.44,1.4c0,0.39-0.06,0.74-0.19,1.05
		c-0.13,0.31-0.32,0.58-0.57,0.8c-0.25,0.22-0.56,0.4-0.92,0.52c-0.36,0.12-0.77,0.19-1.23,0.19c-0.95,0-1.84-0.28-2.65-0.85
		l0.84-1.58c0.29,0.26,0.58,0.45,0.87,0.58c0.29,0.13,0.57,0.19,0.85,0.19c0.32,0,0.56-0.07,0.72-0.22c0.16-0.15,0.23-0.31,0.23-0.5
		c0-0.11-0.02-0.21-0.06-0.29s-0.11-0.16-0.2-0.23c-0.09-0.07-0.22-0.14-0.37-0.2s-0.33-0.13-0.54-0.2
		c-0.25-0.08-0.5-0.17-0.75-0.27s-0.46-0.23-0.65-0.39c-0.19-0.16-0.34-0.36-0.46-0.6c-0.12-0.24-0.18-0.55-0.18-0.92
		c0-0.37,0.06-0.71,0.19-1.02c0.12-0.3,0.3-0.56,0.52-0.78c0.22-0.22,0.5-0.39,0.82-0.5c0.32-0.12,0.69-0.18,1.08-0.18
		c0.37,0,0.76,0.05,1.17,0.15c0.41,0.1,0.8,0.26,1.17,0.46L187.35,116.07z"/>
	<path class="st16" d="M194.28,120.37h-2.8l-0.45,1.31h-2.09l2.87-7.54h2.14l2.87,7.54h-2.09L194.28,120.37z M193.76,118.89
		l-0.88-2.51l-0.88,2.51H193.76z"/>
	<path class="st16" d="M200.22,115.8v5.88h-1.96v-5.88h-1.61v-1.66h5.18v1.66H200.22z"/>
	<path class="st16" d="M204.75,114.14v7.54h-1.96v-7.54H204.75z"/>
	<path class="st16" d="M206.13,117.91c0-0.56,0.1-1.08,0.31-1.56c0.21-0.48,0.49-0.91,0.86-1.27c0.37-0.36,0.8-0.64,1.31-0.84
		c0.51-0.2,1.07-0.31,1.69-0.31c0.61,0,1.17,0.1,1.68,0.31c0.51,0.2,0.96,0.48,1.33,0.84s0.66,0.78,0.87,1.27
		c0.21,0.48,0.31,1,0.31,1.56s-0.1,1.08-0.31,1.56c-0.21,0.48-0.5,0.91-0.87,1.27s-0.81,0.64-1.33,0.84
		c-0.51,0.2-1.07,0.31-1.68,0.31c-0.61,0-1.18-0.1-1.69-0.31c-0.51-0.2-0.95-0.48-1.31-0.84c-0.37-0.36-0.65-0.78-0.86-1.27
		C206.24,119,206.13,118.47,206.13,117.91z M208.18,117.91c0,0.3,0.06,0.58,0.17,0.83s0.27,0.47,0.46,0.66
		c0.19,0.19,0.42,0.33,0.68,0.43c0.26,0.1,0.53,0.16,0.81,0.16s0.56-0.05,0.81-0.16c0.26-0.1,0.48-0.25,0.68-0.43
		c0.2-0.19,0.35-0.41,0.46-0.66s0.17-0.53,0.17-0.83s-0.06-0.58-0.17-0.83s-0.27-0.47-0.46-0.66c-0.2-0.19-0.42-0.33-0.68-0.44
		c-0.26-0.1-0.53-0.16-0.81-0.16s-0.56,0.05-0.81,0.16c-0.26,0.1-0.48,0.25-0.68,0.44c-0.19,0.19-0.35,0.41-0.46,0.66
		S208.18,117.61,208.18,117.91z"/>
	<path class="st16" d="M215.85,121.68v-7.54h1.96l3.62,4.61v-4.61h1.95v7.54h-1.95l-3.62-4.61v4.61H215.85z"/>
</g>
<g>
	<path class="st17" d="M231.38,116.26c0.21,0,0.41,0.04,0.6,0.13c0.19,0.09,0.35,0.2,0.49,0.35c0.14,0.15,0.25,0.31,0.33,0.5
		s0.12,0.38,0.12,0.59c0,0.22-0.04,0.43-0.12,0.62s-0.19,0.36-0.33,0.5c-0.14,0.14-0.3,0.26-0.5,0.34
		c-0.19,0.08-0.39,0.12-0.61,0.12c-0.21,0-0.41-0.04-0.6-0.12s-0.35-0.19-0.49-0.33c-0.14-0.14-0.25-0.31-0.33-0.5
		c-0.08-0.19-0.12-0.4-0.12-0.61c0-0.22,0.04-0.43,0.12-0.62s0.19-0.36,0.33-0.5c0.14-0.14,0.31-0.26,0.5-0.34
		S231.16,116.26,231.38,116.26z"/>
</g>
</svg>
